<?xml version="1.0" encoding="utf-8"?>
<!-- Generator: Adobe Illustrator 22.0.1, SVG Export Plug-In . SVG Version: 6.00 Build 0)  -->
<svg version="1.1" id="Layer_1" xmlns="http://www.w3.org/2000/svg" xmlns:xlink="http://www.w3.org/1999/xlink" x="0px" y="0px"
	 viewBox="0 0 2000 1000" style="enable-background:new 0 0 2000 1000;" xml:space="preserve">
<style type="text/css">
	.st0{fill:#606161;}
	.st1{fill:#8C181D;}
</style>
<g>
	<g>
		<g>
			<path class="st0" d="M826.2,568.3h-56.8V466.5h56.8V477h-44.9v32.8h42.2v10.4h-42.2v37.5h44.9V568.3z"/>
			<path class="st0" d="M910.4,568.3h-70v-9.3l54-81.9h-52.4v-10.7h66.8v9.3l-54,81.8h55.6V568.3z"/>
		</g>
		<g>
			<path class="st0" d="M1182.5,568.3h-56.9V466.3h56.9v10.5h-45v32.9h42.3v10.5h-42.3v37.6h45V568.3z"/>
			<path class="st0" d="M1273,568.3h-13.5l-27.4-44.9l-27.9,44.9h-12.6l33.9-53.3l-31.6-48.7h13.1l25.3,40.4l25.5-40.4h12.6
				l-31.6,48.3L1273,568.3z"/>
		</g>
	</g>
	<g>
		<path class="st1" d="M964,454.6c22.1-3.1,42.4,24.7,56.3,17.5c2-1,3.4-1.7,4.1-2.2c0.4,0,0.7,0.1,1,0.1
			c16.2,14.3,40.6-30.6,61.9-24.4c10.6,3.1,5.8,13.6-1.9,22.2c18.9-14.7,15.8-38.3,3-40.8c-23.1-4.6-38,44.9-55.8,40
			c5.5-3.5,11.7-11.2,16.5-21.4c7.7-16.3,9.1-32.5,3.1-36.2c-5.3-3.3-14.5,4.1-22,16.9c-0.5-1.6-0.9-3.3-1.5-4.9
			c-8.1-21.9-23.9-35.2-35.3-29.8c-11.4,5.4-14.1,27.7-6.1,49.5c4.1,11.1,10.2,20,16.7,25.3c-15.1-7-29.2-37.6-45.5-34.7
			c-16.9,3.1-15.3,16.5-22.5,15.2l9.6,26.3C961.5,473.6,948.1,456.8,964,454.6L964,454.6z M1032.1,434c4.2-5.9,8.9-9,11.8-7.2
			c3.8,2.4,2.9,12.7-2,23c-3.8,7.9-8.9,13.5-12.8,14.6C1033.3,457.4,1034.3,446.3,1032.1,434L1032.1,434z M1024.4,462
			c-1.5-3.8-0.6-10.9,2.5-18.5C1028.1,451.1,1027.2,457.8,1024.4,462L1024.4,462z M998.2,446.6c-5.1-13.9-3.4-28,3.9-31.5
			c7.2-3.4,17.3,5,22.4,18.9c0.3,0.8,0.5,1.6,0.7,2.4c-4.8,11.6-6.1,22.6-3.6,28.4c-0.3,0.2-0.6,0.5-1,0.7c-0.9,0.4-1.8,0.6-2.6,0.7
			c-0.1,0.1-0.1,0.1-0.2,0.1C1011,466.7,1002.7,458.8,998.2,446.6L998.2,446.6z M998.2,446.6"/>
		<g>
			<g>
				<path class="st1" d="M950.6,515.8h23.2V549c-3.6,1.2-7.3,2-11,2.6c-3.7,0.6-8.1,0.9-13,0.9c-10.3,0-18.4-3.1-24.1-9.2
					s-8.6-14.7-8.6-25.8c0-7.1,1.4-13.3,4.3-18.6c2.8-5.3,6.9-9.4,12.3-12.2c5.3-2.8,11.6-4.2,18.8-4.2c7.3,0,14.1,1.3,20.3,4
					l-3.1,7c-6.2-2.6-12.1-3.9-17.8-3.9c-8.3,0-14.8,2.5-19.4,7.4c-4.7,4.9-7,11.8-7,20.6c0,9.2,2.2,16.2,6.7,20.9
					c4.5,4.8,11.1,7.1,19.8,7.1c4.7,0,9.3-0.5,13.8-1.6v-21h-15.2V515.8z"/>
				<path class="st1" d="M992.8,551.5v-68.2h7.9v68.2H992.8z"/>
				<path class="st1" d="M1030,551.5h-7.9v-68.2h38v7H1030v24.9h28.3v7H1030V551.5z"/>
				<path class="st1" d="M1095,551.5h-7.9v-61.1h-21.6v-7h51.1v7H1095V551.5z"/>
			</g>
			<g>
				<rect x="916.9" y="557.3" class="st1" width="199.8" height="11"/>
				<rect x="916.9" y="466.5" class="st1" width="199.8" height="11"/>
			</g>
		</g>
	</g>
</g>
</svg>
