<?xml version="1.0" encoding="utf-8"?>
<!-- Generator: Adobe Illustrator 16.0.0, SVG Export Plug-In . SVG Version: 6.00 Build 0)  -->
<!DOCTYPE svg PUBLIC "-//W3C//DTD SVG 1.1//EN" "http://www.w3.org/Graphics/SVG/1.1/DTD/svg11.dtd">
<svg version="1.1" id="Layer_1" xmlns="http://www.w3.org/2000/svg" xmlns:xlink="http://www.w3.org/1999/xlink" x="0px" y="0px"
	 width="1691px" height="1407px" viewBox="0 0 1691 1407" enable-background="new 0 0 1691 1407" xml:space="preserve">
<g id="packet">
	<path fill="#515151" d="M1691,165.176C1691,73.952,1617.047,0,1525.822,0H165.176C73.952,0,0,73.952,0,165.176v1076.648
		C0,1333.049,73.952,1407,165.176,1407h1360.646c91.225,0,165.178-73.951,165.178-165.176V165.176z M166.062,132h1361.058
		c18.215,0,32.881,14.528,32.881,32.746v1.433L869.916,856.338c-8.418,8.416-18.209,9.674-23.318,9.674s-14.934-1.258-23.354-9.674
		L133,166.084v-1.339C133,146.527,147.846,132,166.062,132z M1527.119,1275H166.062c-18.216,0-33.062-15.084-33.062-33.301V352.96
		l596.827,596.817c31.197,31.197,72.684,48.377,116.803,48.377c44.125-0.004,85.527-17.188,116.723-48.383L1560,353.054v888.646
		C1560,1259.916,1545.334,1275,1527.119,1275z"/>
</g>
<g id="Layer_1_1_">
</g>
</svg>
