<?xml version="1.0" encoding="utf-8"?>
<!-- Generator: Adobe Illustrator 16.0.0, SVG Export Plug-In . SVG Version: 6.00 Build 0)  -->
<!DOCTYPE svg PUBLIC "-//W3C//DTD SVG 1.1//EN" "http://www.w3.org/Graphics/SVG/1.1/DTD/svg11.dtd">
<svg version="1.1" id="Layer_1" xmlns="http://www.w3.org/2000/svg" xmlns:xlink="http://www.w3.org/1999/xlink" x="0px" y="0px"
	 width="480.858px" height="546.429px" viewBox="67.423 0 480.858 546.429" enable-background="new 67.423 0 480.858 546.429"
	 xml:space="preserve">
<g transform="matrix(1,0,0,-1,197.42373,1300.6102)">
	<path fill="#515151" d="M350.858,842.635c0-27.322-8.311-48.895-24.932-64.718c-16.621-15.824-38.705-23.735-66.254-23.735H-38.815
		c-27.549,0-49.634,7.911-66.254,23.735C-121.69,793.74-130,815.312-130,842.635c0,12.066,0.398,23.85,1.195,35.347
		c0.797,11.498,2.391,23.906,4.781,37.226s5.407,25.671,9.05,37.055c3.643,11.384,8.538,22.483,14.685,33.298
		c6.147,10.815,13.206,20.036,21.174,27.663c7.969,7.627,17.702,13.718,29.2,18.271c11.498,4.554,24.191,6.831,38.079,6.831
		c2.049,0,6.831-2.448,14.344-7.343c7.514-4.895,15.995-10.359,25.443-16.393c9.448-6.034,21.743-11.498,36.884-16.393
		s30.338-7.343,45.592-7.343c15.254,0,30.453,2.448,45.594,7.343s27.434,10.359,36.883,16.393
		c9.449,6.033,17.93,11.498,25.443,16.393s12.295,7.343,14.344,7.343c13.889,0,26.582-2.277,38.08-6.831
		c11.496-4.553,21.23-10.644,29.199-18.271c7.969-7.627,15.027-16.848,21.174-27.663c6.146-10.814,11.043-21.914,14.686-33.298
		s6.66-23.735,9.051-37.055s3.984-25.728,4.781-37.226C350.459,866.484,350.858,854.701,350.858,842.635z"/>
</g>
<path fill="#515151" d="M438.995,131.143c0,36.201-12.807,67.108-38.421,92.722c-25.613,25.613-56.521,38.421-92.722,38.421
	c-36.201,0-67.108-12.808-92.722-38.421c-25.614-25.614-38.421-56.521-38.421-92.722s12.807-67.108,38.421-92.722
	S271.651,0,307.853,0c36.2,0,67.108,12.807,92.722,38.421C426.188,64.035,438.995,94.942,438.995,131.143z"/>
<path d="M326.5,125.5"/>
</svg>
